<?xml version="1.0" standalone="no"?>
<!DOCTYPE svg PUBLIC "-//W3C//DTD SVG 20010904//EN"
 "http://www.w3.org/TR/2001/REC-SVG-20010904/DTD/svg10.dtd">
<svg version="1.0" xmlns="http://www.w3.org/2000/svg"
 width="1433.000000pt" height="782.000000pt" viewBox="0 0 1433.000000 782.000000"
 preserveAspectRatio="xMidYMid meet">

<g transform="translate(0.000000,782.000000) scale(0.100000,-0.100000)"
fill="#000000" stroke="none">
<path d="M3940 7750 c0 -6 -130 -10 -370 -10 -431 0 -392 13 -389 -131 1 -56
-3 -95 -10 -102 -7 -7 -11 -52 -11 -118 0 -61 -4 -111 -10 -114 -6 -4 -10 -60
-10 -134 0 -102 -3 -131 -15 -141 -13 -11 -15 -56 -15 -296 0 -178 -4 -285
-10 -289 -7 -4 -10 -448 -10 -1299 0 -1023 -3 -1296 -12 -1304 -10 -8 -14
-282 -16 -1289 -2 -744 -8 -1282 -13 -1287 -5 -6 -9 -178 -9 -392 l0 -383 32
-15 c17 -9 43 -16 58 -16 14 0 35 -7 46 -15 10 -8 38 -15 61 -15 23 0 44 -4
48 -9 10 -18 68 -41 100 -41 18 0 38 -7 45 -15 7 -8 25 -15 41 -15 15 0 31 -4
34 -10 3 -5 16 -10 29 -10 12 0 31 -7 42 -15 10 -8 36 -15 56 -15 20 0 40 -4
43 -10 8 -13 95 -13 95 0 0 6 16 10 36 10 19 0 55 11 80 25 25 14 60 25 78 25
19 0 39 7 46 15 7 8 27 15 46 15 18 0 54 11 80 25 26 14 62 25 79 25 18 0 38
7 45 15 7 8 28 15 46 15 36 0 64 12 102 44 l22 19 0 373 c0 238 4 375 10 379
6 4 10 144 10 389 0 271 3 385 11 393 8 8 13 131 17 403 3 215 9 393 13 396 5
3 9 173 9 379 0 238 4 376 10 380 6 4 10 144 10 386 0 330 2 383 16 404 9 13
13 29 9 35 -9 15 6 290 16 290 5 0 9 -168 9 -373 0 -212 4 -377 9 -382 5 -6
11 -176 13 -383 2 -283 6 -376 16 -384 9 -8 12 -97 12 -384 0 -238 4 -375 10
-379 6 -4 10 -141 10 -379 0 -320 2 -375 15 -386 13 -11 15 -66 15 -384 0
-229 4 -376 10 -382 5 -5 11 -100 12 -219 l3 -210 30 -3 c17 -2 34 -8 40 -13
5 -5 26 -9 46 -9 20 0 42 -7 49 -15 7 -8 24 -15 39 -15 14 0 35 -7 45 -15 11
-8 30 -15 43 -15 13 0 23 -4 23 -10 0 -5 20 -10 44 -10 26 0 48 -6 56 -15 7
-8 25 -15 41 -15 16 0 29 -4 29 -10 0 -5 13 -10 29 -10 16 0 34 -7 41 -15 7
-8 25 -15 41 -15 15 0 31 -5 34 -10 8 -13 92 -13 100 0 3 6 17 10 29 10 13 0
29 7 36 15 8 9 30 15 56 15 24 0 44 5 44 10 0 6 13 10 29 10 16 0 34 7 41 15
7 8 25 15 41 15 15 0 31 5 34 10 3 6 23 10 44 10 22 0 44 6 51 15 7 8 24 15
39 15 14 0 35 7 45 15 11 8 30 15 42 15 13 0 26 5 29 10 3 6 19 10 36 10 24 0
29 4 29 24 0 14 -4 28 -10 31 -7 4 -10 608 -10 1779 0 1095 -4 1776 -9 1781
-6 6 -11 537 -12 1373 -2 1109 -4 1366 -15 1380 -10 12 -13 57 -14 159 0 83
-4 144 -10 148 -6 4 -10 56 -10 124 0 92 -3 121 -15 131 -12 10 -15 47 -17
184 l-3 171 -345 3 c-209 1 -348 6 -354 12 -13 13 -113 13 -121 0 -4 -6 -188
-10 -520 -10 -332 0 -516 4 -520 10 -3 6 -33 10 -66 10 -33 0 -59 -4 -59 -10z
m-2 -143 l3 -97 -363 2 -363 3 -3 84 c-2 46 -1 90 2 98 5 11 71 13 363 11
l358 -3 3 -98z m603 91 c1 -12 0 -164 -1 -181 0 -4 -107 -6 -237 -5 l-238 3
-3 84 c-2 46 -1 90 2 98 8 19 476 19 477 1z m247 -26 c4 -35 26 -40 28 -6 1
10 2 25 3 32 1 9 36 12 141 12 162 0 153 8 148 -120 l-3 -75 -141 -3 c-135 -2
-142 -2 -147 18 -7 26 -23 26 -30 0 -5 -19 -12 -21 -109 -18 l-103 3 -3 84
c-2 46 0 90 2 98 4 11 29 13 108 11 l103 -3 3 -33z m1111 24 c8 -9 11 -45 9
-98 l-3 -83 -337 -3 -338 -2 0 93 c0 52 3 97 7 100 3 4 151 7 328 7 265 0 325
-3 334 -14z m-719 -46 c0 -17 5 -39 12 -50 9 -14 9 -24 0 -42 -6 -13 -13 -45
-14 -73 -2 -27 -7 -50 -13 -50 -10 0 -20 208 -11 232 10 24 26 13 26 -17z
m-1175 -80 c0 -24 -5 -36 -17 -38 -19 -4 -32 29 -23 59 11 34 40 19 40 -21z
m-601 -133 c8 -13 7 -24 -6 -48 -10 -17 -18 -48 -18 -69 0 -22 -6 -43 -16 -51
-8 -7 -13 -21 -11 -30 3 -10 -1 -26 -9 -36 -7 -10 -14 -30 -14 -45 0 -15 -4
-30 -10 -33 -5 -3 -10 -19 -10 -34 0 -16 -7 -34 -15 -41 -8 -7 -15 -25 -15
-41 0 -15 -4 -31 -10 -34 -5 -3 -10 -25 -10 -48 0 -23 -7 -51 -15 -61 -8 -11
-15 -30 -15 -42 0 -13 -4 -26 -10 -29 -5 -3 -10 -22 -10 -41 0 -19 -4 -34 -10
-34 -5 0 -10 -13 -10 -28 0 -16 -7 -37 -15 -48 -8 -10 -15 -36 -15 -56 0 -20
-4 -40 -10 -43 -7 -4 -10 60 -10 184 0 116 4 192 10 196 6 4 10 60 10 134 0
102 3 131 15 141 12 10 15 38 15 130 0 64 3 120 7 124 4 4 50 5 101 4 78 -2
97 -6 106 -21z m234 11 c7 -7 12 -22 12 -35 0 -13 5 -23 10 -23 6 0 10 10 10
23 0 41 17 47 131 47 59 0 114 -3 123 -6 10 -4 16 -18 16 -35 0 -29 1 -29 59
-29 l60 0 3 33 3 32 229 3 c126 1 233 -1 238 -6 13 -13 11 -2103 -1 -2115 -7
-7 -11 -139 -11 -393 0 -245 -4 -385 -10 -389 -6 -4 -10 -144 -10 -389 0 -321
-2 -385 -15 -402 -12 -16 -14 -81 -15 -401 0 -243 -4 -384 -10 -388 -6 -4 -10
-141 -10 -378 -1 -311 -3 -375 -15 -391 -13 -17 -15 -81 -15 -402 0 -245 -4
-385 -10 -389 -6 -4 -10 -145 -10 -390 0 -245 -4 -386 -10 -390 -5 -3 -10 -26
-10 -51 0 -38 -4 -46 -24 -54 -13 -5 -27 -14 -31 -19 -3 -6 -21 -11 -40 -11
-19 0 -55 -11 -81 -25 -26 -14 -62 -25 -80 -25 -18 0 -36 -4 -39 -10 -3 -5
-24 -10 -45 -10 -21 0 -41 -4 -44 -9 -12 -19 -88 -51 -121 -51 -19 0 -35 -4
-35 -10 0 -5 -13 -10 -28 -10 -15 0 -33 -5 -39 -11 -19 -19 -35 0 -28 32 6 26
4 29 -19 29 -22 0 -26 -4 -26 -29 0 -33 -16 -49 -33 -32 -6 6 -21 11 -33 11
-13 0 -26 5 -29 10 -3 6 -23 10 -44 10 -20 0 -46 7 -57 15 -10 8 -28 15 -39
15 -11 0 -29 7 -39 15 -11 8 -30 15 -42 15 -13 0 -26 5 -29 10 -3 6 -23 10
-44 10 -22 0 -44 6 -51 15 -7 8 -25 15 -41 15 -15 0 -31 5 -34 10 -3 6 -19 10
-34 10 -16 0 -34 7 -41 15 -7 8 -19 15 -26 15 -11 0 -14 19 -14 84 0 47 5 88
10 91 7 4 10 451 10 1309 0 868 3 1305 10 1312 7 7 10 438 10 1295 0 1117 2
1288 15 1305 11 15 14 58 15 210 0 190 0 191 25 214 15 14 25 35 25 51 0 15 5
31 10 34 17 11 11 23 -12 27 -33 4 -31 42 2 46 36 5 50 20 50 53 0 15 5 31 10
34 17 11 11 37 -10 42 -34 9 -17 53 21 53 11 0 19 11 22 33 3 17 7 41 9 52 2
12 -3 20 -12 20 -8 0 -16 8 -18 18 -4 21 24 57 45 57 7 0 18 11 23 24 5 13 14
27 19 31 20 12 11 35 -16 46 -20 7 -23 13 -15 21 7 7 12 24 12 39 0 34 16 46
25 19 9 -30 25 -24 25 9 0 16 7 34 15 41 23 19 18 39 -12 51 -20 7 -23 13 -15
21 7 7 12 25 12 40 0 18 5 28 15 28 8 0 15 -7 15 -15 0 -8 5 -15 10 -15 6 0
10 11 10 25 0 14 7 36 15 48 19 29 5 57 -19 38 -11 -9 -16 -10 -16 -2 0 6 5
11 10 11 6 0 10 8 10 18 0 28 11 34 31 16 25 -22 39 -9 39 35 0 49 14 61 75
61 28 0 56 -5 63 -12z m1460 0 c7 -7 12 -20 12 -30 0 -17 7 -19 57 -16 52 3
58 5 63 28 6 25 8 25 105 25 97 0 99 -1 105 -24 8 -34 30 -39 30 -8 0 29 16
37 70 37 30 0 43 -6 59 -27 12 -14 19 -34 16 -43 -3 -10 1 -23 10 -30 8 -7 15
-9 15 -5 0 5 9 0 20 -10 11 -10 20 -21 20 -26 0 -4 -9 -5 -20 -2 -15 4 -20 0
-20 -15 0 -12 5 -24 10 -27 6 -3 10 -19 10 -35 0 -40 18 -47 32 -13 l12 28 4
-30 c2 -16 8 -34 13 -39 16 -17 10 -36 -11 -36 -15 0 -20 -7 -20 -24 0 -14 5
-28 10 -31 6 -3 10 -19 10 -34 0 -21 7 -31 32 -42 39 -16 51 -49 19 -49 -22 0
-28 -14 -11 -25 6 -3 10 -19 10 -35 0 -21 7 -32 27 -42 39 -19 50 -42 34 -71
-7 -13 -11 -41 -9 -63 3 -36 6 -39 36 -42 33 -3 44 -26 21 -49 -5 -5 -9 -32
-7 -59 3 -44 6 -50 35 -64 32 -15 43 -43 23 -55 -5 -3 -10 -28 -10 -55 0 -48
1 -49 33 -52 27 -2 33 -8 35 -31 2 -16 -2 -35 -9 -43 -9 -11 -9 -18 -1 -26 9
-9 12 -385 12 -1494 0 -978 3 -1485 10 -1489 7 -4 10 -472 10 -1372 0 -1529 6
-1403 -71 -1403 -21 0 -41 -5 -44 -10 -3 -6 -16 -10 -29 -10 -12 0 -31 -7 -42
-15 -10 -8 -31 -15 -46 -15 -15 0 -30 -4 -33 -10 -3 -5 -21 -10 -39 -10 -18 0
-41 -7 -52 -15 -10 -8 -31 -15 -45 -15 -15 0 -32 -7 -39 -15 -7 -8 -23 -15
-36 -15 -12 0 -26 -4 -29 -10 -3 -5 -19 -10 -35 -10 -16 0 -32 -5 -35 -10 -14
-23 -25 -7 -25 39 0 46 -25 111 -42 111 -5 0 -8 -36 -8 -80 0 -45 -4 -80 -10
-80 -5 0 -24 8 -42 18 -53 28 -101 42 -125 36 -14 -4 -23 -2 -23 5 0 6 -8 11
-19 11 -10 0 -24 7 -31 15 -7 8 -23 15 -36 15 -12 0 -26 5 -29 10 -3 6 -13 10
-22 10 -9 0 -24 7 -34 16 -14 13 -21 13 -37 3 -16 -10 -26 -9 -56 9 -21 12
-48 22 -60 22 -13 0 -29 7 -36 15 -7 8 -25 15 -41 15 l-29 0 0 258 c-1 210 -3
261 -15 276 -13 17 -15 80 -15 387 0 235 -4 370 -10 374 -6 4 -10 142 -10 380
0 206 -4 376 -9 379 -4 3 -10 175 -13 381 -4 259 -9 380 -17 388 -8 8 -11 122
-11 383 0 238 -4 375 -10 379 -6 4 -10 141 -10 379 0 321 -2 375 -15 386 -13
11 -15 80 -13 539 l3 526 45 5 c51 6 62 26 33 59 -19 22 -48 28 -58 11 -3 -5
-10 -10 -16 -10 -15 0 -12 1423 3 1438 9 9 80 12 258 12 178 0 249 -3 258 -12z
m800 0 c7 -7 12 -39 12 -74 0 -35 5 -66 10 -69 6 -4 10 -56 10 -124 0 -64 4
-121 9 -127 6 -5 11 -85 13 -178 1 -115 6 -173 15 -185 18 -24 18 -191 -1
-191 -8 0 -16 15 -20 35 -3 19 -9 51 -12 70 -3 19 -10 38 -15 41 -5 3 -9 18
-9 33 0 16 -7 34 -15 41 -8 7 -15 25 -15 41 0 15 -4 31 -10 34 -5 3 -10 25
-10 48 0 23 -7 51 -15 61 -8 11 -15 30 -15 42 0 13 -4 26 -10 29 -5 3 -10 19
-10 35 0 16 -4 32 -10 35 -5 3 -10 19 -10 34 0 16 -7 34 -15 41 -8 7 -15 27
-15 46 0 18 -4 36 -10 39 -5 3 -10 23 -10 43 0 20 -7 46 -15 56 -8 11 -15 32
-15 48 0 15 -4 28 -10 28 -11 0 -14 63 -3 73 12 12 188 8 201 -5z m49 -1030
c-3 -8 -6 -5 -6 6 -1 11 2 17 5 13 3 -3 4 -12 1 -19z m-2787 -8 c0 -11 -4 -20
-10 -20 -5 0 -10 9 -10 20 0 11 5 20 10 20 6 0 10 -9 10 -20z"/>
<path d="M4797 7373 c-4 -3 -7 -26 -7 -50 0 -56 24 -54 28 2 3 37 -8 62 -21
48z"/>
<path d="M4790 7156 c0 -25 4 -48 10 -51 13 -8 24 39 16 70 -10 40 -26 29 -26
-19z"/>
<path d="M4790 6975 c0 -33 4 -45 13 -42 7 2 12 20 12 42 0 22 -5 40 -12 43
-9 2 -13 -10 -13 -43z"/>
<path d="M4790 6795 c0 -33 4 -45 13 -42 7 2 12 20 12 42 0 22 -5 40 -12 43
-9 2 -13 -10 -13 -43z"/>
<path d="M4790 6606 c0 -58 15 -84 25 -43 9 36 2 90 -12 95 -9 3 -13 -12 -13
-52z"/>
<path d="M4790 6426 c0 -58 15 -84 25 -43 9 36 2 90 -12 95 -9 3 -13 -12 -13
-52z"/>
<path d="M4797 6304 c-4 -4 -7 -32 -7 -61 0 -66 23 -70 28 -5 3 42 -8 78 -21
66z"/>
<path d="M4725 6079 c-37 -33 -45 -63 -19 -73 21 -8 34 1 34 23 0 10 11 28 25
41 23 21 25 40 5 40 -5 0 -25 -14 -45 -31z"/>
<path d="M8277 7633 c-4 -3 -7 -123 -7 -265 0 -201 -3 -264 -14 -281 -9 -16
-14 -64 -15 -166 0 -82 -5 -149 -11 -155 -7 -7 -10 -313 -10 -896 0 -666 -3
-889 -12 -898 -9 -9 -13 -452 -16 -1819 -2 -1041 -8 -1812 -13 -1818 -5 -5 -9
-191 -9 -415 l0 -407 23 -19 c32 -27 64 -44 85 -44 10 0 27 -7 38 -15 10 -8
36 -15 56 -15 20 0 40 -5 43 -10 3 -6 14 -10 24 -10 10 0 24 -7 31 -15 7 -9
29 -15 51 -15 21 0 41 -5 44 -10 3 -6 23 -10 44 -10 22 0 44 -6 51 -15 7 -8
21 -15 31 -15 10 0 21 -4 24 -10 3 -5 17 -10 29 -10 13 0 29 -7 36 -15 16 -19
51 -19 76 0 10 8 33 15 51 15 18 0 52 11 77 25 25 14 54 25 65 25 11 0 23 5
26 10 3 6 19 10 34 10 16 0 34 7 41 15 8 9 30 15 56 15 24 0 44 5 44 10 0 6
13 10 29 10 16 0 34 7 41 15 7 8 25 15 41 15 15 0 31 5 34 10 3 6 23 10 45 10
33 0 41 5 59 36 20 34 21 47 21 409 0 238 4 376 10 380 6 4 10 144 10 389 0
321 2 385 15 402 12 16 14 82 15 406 0 247 4 389 10 393 6 4 10 146 10 394 0
333 2 390 15 401 13 11 15 68 15 401 0 248 4 390 10 394 6 3 10 -2 10 -12 0
-11 4 -23 9 -29 5 -5 11 -175 14 -387 2 -269 7 -381 15 -389 9 -9 12 -112 12
-374 0 -231 4 -365 10 -369 6 -4 10 -143 10 -384 0 -324 2 -380 15 -391 13
-11 15 -67 15 -391 0 -241 4 -380 10 -384 6 -4 10 -141 10 -379 0 -283 3 -375
12 -384 7 -7 15 -39 18 -70 5 -55 6 -57 35 -60 17 -2 34 -8 40 -13 5 -5 19 -9
31 -9 12 0 27 -7 34 -15 8 -9 29 -15 56 -15 23 0 46 -4 49 -10 3 -5 16 -10 29
-10 12 0 31 -7 42 -15 10 -8 31 -15 47 -15 15 0 27 -4 27 -10 0 -5 20 -10 44
-10 25 0 47 -4 51 -9 10 -17 68 -41 99 -41 17 0 40 -7 50 -15 25 -19 60 -19
76 0 7 8 27 15 46 15 18 0 54 11 80 25 26 14 62 25 80 25 18 0 36 4 39 10 3 5
19 10 34 10 16 0 34 7 41 15 7 8 25 15 41 15 16 0 29 5 29 10 0 6 20 10 44 10
26 0 48 6 56 15 7 8 22 15 35 15 33 0 83 28 102 57 16 24 16 27 0 55 -16 27
-17 124 -17 1314 0 849 -3 1284 -10 1284 -7 0 -10 443 -10 1308 0 1135 -2
1311 -15 1328 -12 16 -14 97 -15 531 0 330 -4 514 -10 518 -6 4 -10 60 -10
133 -1 96 -4 132 -15 146 -12 16 -15 63 -15 251 0 212 -2 233 -18 248 -20 19
-87 23 -97 7 -4 -6 -102 -10 -260 -10 -158 0 -256 4 -260 10 -3 6 -26 10 -51
10 -24 0 -44 -4 -44 -10 0 -14 -587 -14 -595 0 -4 7 -11 8 -18 1 -17 -13 -633
-15 -642 -1 -8 13 -112 13 -120 0 -4 -6 -105 -10 -270 -10 -165 0 -266 4 -270
10 -7 11 -78 14 -88 3z m612 -73 c16 -8 18 -22 17 -97 l-2 -88 -267 -3 -267
-2 0 94 c0 82 2 95 18 99 35 9 484 7 501 -3z m679 4 c21 -6 22 -11 22 -100 l0
-94 -280 0 -280 0 0 94 c0 66 4 96 13 99 17 8 498 8 525 1z m700 -2 c9 -6 12
-33 10 -98 l-3 -89 -290 0 -290 0 -3 92 c-2 81 -1 92 15 96 32 8 548 7 561 -1z
m606 2 c13 -5 16 -24 16 -100 l0 -94 -255 0 -255 0 0 94 c0 66 4 96 13 99 18
8 462 8 481 1z m-2534 -133 c0 -128 -7 -158 -33 -132 -8 8 -8 14 1 23 16 16
15 79 -2 101 -14 18 -10 63 5 73 5 3 9 18 9 35 0 16 5 29 10 29 6 0 10 -50 10
-129z m638 21 c3 -30 1 -33 -20 -30 -23 3 -34 27 -24 54 11 28 41 11 44 -24z
m1370 0 c3 -26 0 -32 -17 -32 -26 0 -34 15 -27 46 10 37 40 28 44 -14z m612 3
c0 -28 -4 -35 -20 -35 -16 0 -20 7 -20 35 0 28 4 35 20 35 16 0 20 -7 20 -35z
m-1300 0 c15 -18 5 -35 -21 -35 -12 0 -19 7 -19 18 0 33 20 42 40 17z m-832
-152 c2 -20 9 -33 17 -33 8 0 15 13 17 33 2 24 8 32 23 32 13 0 21 -7 21 -20
1 -11 2 -26 3 -32 1 -9 20 -13 60 -13 l60 0 3 33 3 32 275 0 275 0 3 -28 c2
-18 12 -32 28 -39 l24 -11 0 -963 c0 -631 -3 -965 -10 -969 -6 -4 -10 -124
-10 -329 0 -268 -2 -325 -15 -342 -12 -16 -14 -82 -15 -406 0 -247 -4 -389
-10 -393 -6 -4 -10 -146 -10 -394 0 -333 -2 -390 -15 -401 -13 -11 -15 -68
-15 -401 0 -248 -4 -390 -10 -394 -6 -4 -10 -146 -10 -393 -1 -324 -3 -390
-15 -406 -13 -17 -15 -82 -15 -408 0 -252 -4 -388 -10 -388 -6 0 -10 -27 -10
-60 0 -59 -1 -60 -27 -60 -16 0 -37 -7 -47 -15 -11 -8 -37 -15 -58 -15 -21 0
-38 -4 -38 -10 0 -5 -12 -10 -27 -10 -16 0 -37 -7 -47 -15 -11 -8 -28 -15 -37
-15 -10 0 -39 -11 -65 -25 -31 -17 -63 -25 -95 -25 -27 0 -49 -4 -49 -10 0 -5
-9 -10 -19 -10 -11 0 -22 -4 -26 -9 -5 -9 -62 -41 -72 -41 -1 0 -3 25 -3 55 0
42 -3 55 -15 55 -11 0 -15 -11 -15 -37 0 -20 -7 -44 -16 -54 -14 -15 -18 -15
-44 -2 -16 8 -32 18 -35 24 -4 5 -26 9 -50 9 -24 0 -47 5 -50 10 -3 6 -16 10
-29 10 -12 0 -31 7 -42 15 -10 8 -31 15 -46 15 -16 0 -28 5 -28 10 0 6 -11 10
-24 10 -12 0 -44 11 -70 25 -26 14 -62 25 -80 25 -19 0 -39 7 -46 15 -7 8 -21
15 -31 15 -19 0 -19 47 -19 1859 0 1640 2 1860 15 1871 13 11 15 158 15 1211
0 788 3 1200 10 1204 6 4 10 68 10 159 0 101 4 156 11 163 7 7 14 58 16 120 2
59 6 113 8 120 2 6 16 13 32 15 19 2 29 10 31 23 7 47 0 46 234 43 l223 -3 3
-32z m1453 -3 c6 -30 7 -31 8 -7 1 25 4 27 40 27 22 0 43 5 46 10 8 14 58 13
73 -2 8 -8 15 -8 25 1 10 8 72 11 213 9 l199 -3 3 -32 c3 -31 6 -33 41 -33 55
0 61 -11 61 -121 0 -55 4 -101 10 -104 6 -4 10 -60 10 -133 1 -96 4 -132 15
-146 13 -17 15 -126 15 -767 0 -488 3 -750 10 -754 7 -4 10 -453 10 -1314 0
-846 3 -1310 10 -1317 6 -6 10 -375 10 -1034 1 -1002 0 -1025 -19 -1031 -10
-4 -22 -12 -26 -18 -3 -6 -19 -11 -35 -11 -16 0 -32 -4 -35 -10 -3 -5 -19 -10
-34 -10 -16 0 -34 -7 -41 -15 -7 -9 -29 -15 -51 -15 -21 0 -41 -4 -44 -10 -3
-5 -14 -10 -24 -10 -10 0 -24 -7 -31 -15 -7 -9 -29 -15 -51 -15 -21 0 -41 -4
-44 -10 -3 -5 -19 -10 -34 -10 -16 0 -34 -7 -41 -15 -7 -8 -25 -15 -41 -15
-15 0 -31 -5 -34 -10 -13 -21 -23 1 -18 40 5 33 3 40 -11 40 -12 0 -16 -10
-16 -40 0 -43 -21 -63 -43 -41 -6 6 -19 11 -28 11 -9 0 -22 7 -29 15 -7 8 -28
15 -46 15 -34 0 -40 2 -101 34 -17 9 -45 16 -61 16 -17 0 -34 5 -37 10 -3 6
-19 10 -34 10 -16 0 -34 7 -41 15 -7 8 -25 15 -41 15 -15 0 -31 5 -34 10 -3 6
-16 10 -29 10 -12 0 -27 5 -33 11 -6 6 -26 14 -45 18 l-33 7 -3 104 c-1 58 -7
109 -12 114 -6 6 -10 157 -10 382 0 205 -4 375 -9 378 -4 3 -10 177 -13 386
-4 267 -9 385 -17 393 -8 8 -11 115 -11 372 0 204 -4 365 -9 370 -5 6 -11 177
-13 384 -2 274 -6 378 -15 390 -9 12 -12 112 -13 393 0 240 -4 379 -10 383
-14 9 -14 2651 0 2660 6 3 10 19 10 34 0 15 3 31 7 34 4 4 135 6 292 5 l286
-3 6 -35z m-1311 5 c0 -8 -7 -15 -15 -15 -8 0 -15 7 -15 15 0 8 7 15 15 15 8
0 15 -7 15 -15z m1988 3 c-7 -19 -38 -22 -38 -4 0 10 9 16 21 16 12 0 19 -5
17 -12z"/>
<path d="M8825 6900 c-4 -6 -84 -10 -206 -10 l-200 0 3 -47 3 -48 180 -5 180
-5 -3 -33 c-2 -20 3 -41 11 -50 9 -10 17 -30 19 -47 4 -37 41 -43 46 -7 2 12
8 22 13 22 5 0 9 8 9 17 0 9 7 24 16 34 12 13 13 22 5 38 -6 11 -11 22 -11 25
0 3 80 7 178 8 l177 3 3 48 3 47 -190 0 c-116 0 -192 4 -196 10 -3 6 -12 10
-20 10 -8 0 -17 -4 -20 -10z m390 -59 c7 -12 -12 -24 -25 -16 -11 7 -4 25 10
25 5 0 11 -4 15 -9z m-730 -11 c-3 -5 -13 -10 -21 -10 -8 0 -14 5 -14 10 0 6
9 10 21 10 11 0 17 -4 14 -10z"/>
<path d="M10442 6905 c-10 -12 -48 -15 -198 -15 l-185 0 3 -47 3 -48 410 0
410 0 3 48 3 47 -201 0 c-169 0 -202 2 -206 15 -8 19 -25 19 -42 0z m-317 -75
c-3 -5 -13 -10 -21 -10 -8 0 -14 5 -14 10 0 6 9 10 21 10 11 0 17 -4 14 -10z
m735 0 c0 -5 -9 -10 -20 -10 -11 0 -20 5 -20 10 0 6 9 10 20 10 11 0 20 -4 20
-10z"/>
<path d="M13480 2917 c0 -87 6 -101 31 -71 11 14 14 13 26 -10 8 -14 18 -26
23 -26 16 0 21 19 10 40 -9 17 -8 20 10 20 11 0 20 4 20 8 0 4 -27 34 -60 67
l-60 59 0 -87z m90 -35 c-14 -2 -20 -9 -16 -18 3 -8 9 -21 12 -29 11 -26 -12
-16 -25 11 -11 26 -12 26 -31 9 -20 -18 -20 -17 -20 56 l0 73 51 -49 c44 -44
48 -50 29 -53z"/>
</g>
</svg>
