 <svg xmlns="http://www.w3.org/2000/svg" version="1.0" preserveAspectRatio="xMidYMid meet" viewBox="361.14 43.29 599.57 614.15">
              <g transform="translate(0.000000,690.000000) scale(0.100000,-0.100000)" fill="#000000" stroke="none" >
                <path d="M4927 6454 c-99 -22 -178 -53 -208 -83 -14 -14 -38 -58 -53 -97 -14 -39 -32 -78 -39 -86 -7 -8 -73 -29 -147 -48 -312 -76 -393 -136 -570 -420 -111 -180 -222 -514 -264 -795 -30 -201 -37 -397 -34 -875 l3 -475 223 -3 222 -2 0 81 c0 56 4 85 13 93 9 7 20 67 31 166 10 85 31 245 47 355 29 192 49 346 49 373 0 6 3 12 8 12 15 0 53 -372 52 -517 0 -142 0 -144 -44 -275 -48 -145 -65 -239 -101 -563 -54 -485 -73 -723 -95 -1185 -6 -113 -17 -308 -25 -435 -12 -170 -15 -361 -13 -735 l3 -505 403 -3 c317 -2 404 0 407 10 19 50 231 1597 270 1968 8 79 17 146 20 148 3 3 5 -1 5 -9 0 -8 16 -144 35 -304 19 -159 47 -384 61 -500 31 -262 59 -480 84 -655 11 -74 33 -241 50 -370 17 -129 33 -247 36 -263 l6 -27 401 2 402 3 0 835 c0 948 -10 1199 -76 1940 -23 266 -43 380 -110 620 -45 162 -49 186 -44 252 11 136 56 553 62 568 8 20 22 -51 22 -115 1 -69 24 -233 78 -545 25 -146 48 -298 50 -337 l5 -73 224 0 224 0 0 83 c0 46 3 87 7 91 5 4 8 33 9 64 0 31 5 192 9 357 13 509 -22 824 -131 1160 -39 120 -152 364 -204 441 -45 66 -139 183 -170 211 -48 42 -146 83 -315 131 l-170 48 -30 91 c-17 50 -37 99 -45 108 -19 23 -87 53 -175 78 -96 26 -361 33 -458 11z m446 -46 c55 -12 98 -29 115 -43 l26 -23 -23 -51 c-41 -86 -45 -88 -159 -62 -81 18 -118 21 -213 18 -103 -5 -202 -16 -269 -32 -21 -5 -29 0 -53 37 -34 52 -43 86 -30 107 14 22 143 61 238 71 110 12 263 3 368 -22z m199 -156 c24 -78 23 -101 -10 -153 -70 -110 -235 -205 -389 -224 l-53 -7 0 85 0 86 48 6 c161 20 305 118 358 243 8 19 17 32 21 28 4 -4 15 -32 25 -64z m-819 9 c53 -95 162 -175 279 -205 l51 -13 -2 -84 c-1 -46 -4 -86 -7 -88 -10 -11 -176 52 -230 87 -99 65 -174 154 -174 207 0 20 43 145 50 145 3 0 17 -22 33 -49z m390 -73 c6 -42 2 -48 -34 -48 -27 0 -29 2 -29 40 0 37 2 40 29 40 25 0 29 -4 34 -32z m108 23 c76 -13 139 -30 139 -39 0 -14 -90 -61 -147 -78 -107 -31 -270 -3 -348 60 l-30 24 29 12 c16 6 55 13 86 17 l58 6 9 -54 8 -54 60 0 60 0 1 50 c2 63 2 65 12 65 4 0 32 -4 63 -9z m-598 -107 c22 -45 100 -129 152 -162 77 -50 128 -71 264 -109 11 -3 12 -129 6 -816 -4 -446 -9 -815 -12 -819 -2 -5 -174 -8 -383 -8 -428 0 -390 -9 -390 89 0 31 -7 106 -15 166 -9 61 -21 178 -28 260 -12 145 -11 158 16 365 26 202 28 230 23 471 -3 140 -13 302 -21 360 -8 57 -15 111 -15 120 0 18 152 71 285 100 106 23 99 24 118 -17z m1117 -11 c47 -13 116 -33 154 -45 l68 -21 -6 -37 c-3 -20 -17 -129 -32 -241 -23 -180 -25 -224 -19 -377 3 -95 17 -246 29 -335 l23 -162 -34 -310 c-19 -170 -36 -325 -39 -342 l-5 -33 -406 0 -406 0 7 603 c3 331 9 673 12 760 6 148 7 157 23 142 36 -32 81 -12 81 35 0 48 -45 67 -82 33 -17 -15 -18 -14 -18 25 0 45 -1 45 82 56 29 3 40 1 48 -12 9 -16 9 -16 10 1 0 11 14 24 38 34 145 60 243 132 294 215 35 56 24 55 178 11z m-1550 -92 c0 -6 6 -61 14 -123 19 -155 28 -479 16 -616 -10 -127 -48 -412 -120 -902 -40 -275 -70 -508 -70 -547 0 -17 -5 -35 -10 -38 -6 -4 -101 -3 -210 1 l-200 7 0 366 c1 600 36 889 148 1211 63 180 107 275 179 384 82 127 135 190 193 232 47 35 60 40 60 25z m1858 -28 c62 -44 242 -284 242 -321 0 -6 -36 -33 -83 -64 -12 -8 181 -488 197 -488 5 0 23 12 38 27 33 32 41 26 56 -44 59 -270 81 -640 62 -1042 l-13 -278 -196 -6 c-145 -4 -199 -3 -207 6 -12 13 -85 444 -108 647 -9 69 -22 206 -31 305 -9 99 -25 239 -36 310 -29 188 -37 519 -15 692 26 214 38 283 48 283 5 0 26 -12 46 -27z m-890 -245 c-6 -18 -28 -21 -28 -4 0 9 7 16 16 16 9 0 14 -5 12 -12z m1200 -213 c24 -52 59 -142 78 -201 l34 -108 -27 -28 c-29 -30 -35 -29 -51 17 -6 17 -42 107 -81 200 l-70 170 27 22 c15 13 32 23 37 23 6 -1 29 -43 53 -95z m-1322 -1396 c-3 -17 -6 -51 -6 -75 l0 -44 -385 0 -385 0 0 29 c0 15 3 49 6 75 l7 46 385 0 385 0 -7 -31z m844 9 c0 -13 -3 -47 -6 -75 l-7 -53 -398 0 -399 0 0 75 0 75 405 0 405 0 0 -22z m-1500 -183 c0 -19 -115 -271 -162 -356 -21 -36 -47 -77 -58 -90 l-21 -24 6 39 c3 21 13 79 20 130 8 50 27 129 43 176 53 153 43 140 112 140 46 0 60 -3 60 -15z m652 -610 c-4 -653 -11 -798 -62 -1190 -11 -88 -29 -227 -40 -310 -39 -299 -100 -753 -119 -875 -11 -69 -27 -177 -36 -240 -9 -63 -21 -145 -27 -182 l-10 -68 -372 0 -373 0 -6 152 c-11 254 -7 699 8 963 8 138 22 381 30 540 18 367 50 783 75 990 10 88 22 190 26 228 3 37 12 71 18 75 34 20 139 209 216 387 29 66 57 128 62 138 8 16 31 17 311 15 l302 -3 -3 -620z m168 605 c0 -11 5 -20 10 -20 6 0 10 9 10 20 0 20 5 20 246 18 l246 -3 48 -118 c56 -135 115 -247 195 -366 l56 -85 9 -120 c5 -67 16 -191 24 -276 44 -456 57 -833 59 -1686 l2 -829 -372 -3 -372 -2 -6 32 c-6 37 -57 409 -81 593 -8 66 -24 183 -34 260 -23 166 -47 364 -95 770 -20 165 -45 372 -55 460 -13 107 -20 226 -20 359 0 178 2 200 18 212 16 13 16 13 0 14 -17 0 -18 26 -18 395 l0 395 65 0 c58 0 65 -2 65 -20z m693 -32 c20 -66 92 -351 101 -398 l6 -35 -24 29 c-38 46 -104 166 -161 293 -78 177 -78 163 -3 163 l64 0 17 -52z m-1898 -238 l0 -65 -185 0 -185 0 -3 30 -3 30 16 -22 c21 -29 49 -29 69 -1 13 19 14 25 2 43 -18 27 -43 31 -67 9 -18 -17 -19 -16 -19 15 l0 31 188 -2 187 -3 0 -65z m2540 40 c3 -5 2 -17 -3 -26 -8 -15 -10 -15 -15 0 -8 21 -51 21 -68 0 -10 -12 -10 -22 -2 -45 l11 -29 -149 0 -149 0 0 55 0 55 184 0 c112 0 187 -4 191 -10z m-2840 -45 c0 -21 -31 -33 -46 -18 -5 5 -7 17 -3 27 9 24 49 17 49 -9z m2799 19 c21 -8 21 -40 0 -48 -21 -8 -34 1 -34 23 0 28 9 34 34 25z m40 -66 c-3 -4 -12 -8 -20 -8 -12 0 -12 4 -2 20 8 13 15 16 19 8 4 -7 5 -16 3 -20z" />
                <path d="M4377 5394 c-11 -11 -8 -154 3 -154 6 0 10 4 10 10 0 6 91 11 238 12 l237 3 0 65 -1 65 -240 3 c-132 1 -243 -1 -247 -4z m461 -46 c3 -17 -12 -18 -217 -18 -215 0 -221 1 -221 20 0 20 5 20 217 18 198 -3 218 -5 221 -20z m2 -53 c0 -13 -31 -15 -220 -15 -189 0 -220 2 -220 15 0 13 31 15 220 15 189 0 220 -2 220 -15z" />
                <path d="M4850 5216 c0 -9 5 -16 10 -16 6 0 10 4 10 9 0 6 -4 13 -10 16 -5 3 -10 -1 -10 -9z" />
                <path d="M4370 5191 c0 -6 5 -13 10 -16 6 -3 10 1 10 9 0 9 -4 16 -10 16 -5 0 -10 -4 -10 -9z" />
                <path d="M4850 5144 c0 -8 5 -12 10 -9 6 4 8 11 5 16 -9 14 -15 11 -15 -7z" />
                <path d="M4376 5131 c-4 -7 -5 -15 -2 -18 9 -9 19 4 14 18 -4 11 -6 11 -12 0z" />
                <path d="M4850 5074 c0 -8 5 -12 10 -9 6 4 8 11 5 16 -9 14 -15 11 -15 -7z" />
                <path d="M4370 5055 c0 -8 5 -15 10 -15 6 0 10 7 10 15 0 8 -4 15 -10 15 -5 0 -10 -7 -10 -15z" />
                <path d="M4850 5010 c0 -5 5 -10 10 -10 6 0 10 5 10 10 0 6 -4 10 -10 10 -5 0 -10 -4 -10 -10z" />
                <path d="M4370 4985 c0 -8 5 -15 10 -15 6 0 10 7 10 15 0 8 -4 15 -10 15 -5 0 -10 -7 -10 -15z" />
                <path d="M4850 4935 c0 -15 4 -24 10 -20 6 3 10 12 10 20 0 8 -4 17 -10 20 -6 4 -10 -5 -10 -20z" />
                <path d="M4370 4905 c0 -8 5 -15 10 -15 6 0 10 7 10 15 0 8 -4 15 -10 15 -5 0 -10 -7 -10 -15z" />
                <path d="M4851 4854 c0 -11 3 -14 6 -6 3 7 2 16 -1 19 -3 4 -6 -2 -5 -13z" />
                <path d="M4370 4835 c0 -8 5 -15 10 -15 6 0 10 7 10 15 0 8 -4 15 -10 15 -5 0 -10 -7 -10 -15z" />
                <path d="M4851 4794 c0 -11 3 -14 6 -6 3 7 2 16 -1 19 -3 4 -6 -2 -5 -13z" />
                <path d="M4380 4765 c7 -9 15 -13 17 -11 7 7 -7 26 -19 26 -6 0 -6 -6 2 -15z" />
                <path d="M4800 4740 c0 -5 4 -10 9 -10 6 0 13 5 16 10 3 6 -1 10 -9 10 -9 0 -16 -4 -16 -10z" />
                <path d="M4425 4720 c3 -5 11 -10 16 -10 6 0 7 5 4 10 -3 6 -11 10 -16 10 -6 0 -7 -4 -4 -10z" />
                <path d="M4480 4700 c0 -5 5 -10 10 -10 6 0 10 5 10 10 0 6 -4 10 -10 10 -5 0 -10 -4 -10 -10z" />
                <path d="M4550 4700 c0 -5 5 -10 10 -10 6 0 10 5 10 10 0 6 -4 10 -10 10 -5 0 -10 -4 -10 -10z" />
                <path d="M4615 4700 c-3 -5 1 -10 9 -10 9 0 16 5 16 10 0 6 -4 10 -9 10 -6 0 -13 -4 -16 -10z" />
                <path d="M4680 4700 c0 -5 7 -10 16 -10 8 0 12 5 9 10 -3 6 -10 10 -16 10 -5 0 -9 -4 -9 -10z" />
                <path d="M4750 4699 c0 -5 5 -7 10 -4 6 3 10 8 10 11 0 2 -4 4 -10 4 -5 0 -10 -5 -10 -11z" />
                <path d="M5245 5781 c-3 -5 -1 -12 5 -16 5 -3 10 1 10 9 0 18 -6 21 -15 7z" />
                <path d="M5245 5711 c-3 -5 -1 -12 5 -16 5 -3 10 1 10 9 0 18 -6 21 -15 7z" />
                <path d="M5245 5641 c-3 -5 -1 -12 5 -16 5 -3 10 1 10 9 0 18 -6 21 -15 7z" />
                <path d="M5246 5581 c-4 -7 -5 -15 -2 -18 9 -9 19 4 14 18 -4 11 -6 11 -12 0z" />
                <path d="M5245 5511 c-3 -5 -1 -12 5 -16 5 -3 10 1 10 9 0 18 -6 21 -15 7z" />
                <path d="M5240 5435 c0 -8 5 -15 10 -15 6 0 10 7 10 15 0 8 -4 15 -10 15 -5 0 -10 -7 -10 -15z" />
                <path d="M5130 5410 c-24 -45 21 -92 66 -71 23 10 29 27 24 61 -5 35 -73 42 -90 10z m60 -25 c0 -8 -7 -15 -15 -15 -8 0 -15 7 -15 15 0 8 7 15 15 15 8 0 15 -7 15 -15z" />
                <path d="M5370 5326 c0 -41 5 -78 10 -81 6 -3 10 -1 10 4 0 7 80 12 233 13 l232 3 3 68 3 67 -246 0 -245 0 0 -74z m459 35 c7 -5 10 -14 7 -20 -9 -14 -432 -16 -441 -1 -3 6 -3 15 0 20 8 12 414 13 434 1z m9 -63 c-4 -10 -57 -13 -223 -13 -166 0 -219 3 -222 13 -4 9 45 12 222 12 177 0 226 -3 223 -12z" />
                <path d="M5240 5370 c0 -5 5 -10 10 -10 6 0 10 5 10 10 0 6 -4 10 -10 10 -5 0 -10 -4 -10 -10z" />
                <path d="M5240 5300 c0 -5 5 -10 10 -10 6 0 10 5 10 10 0 6 -4 10 -10 10 -5 0 -10 -4 -10 -10z" />
                <path d="M5240 5235 c0 -8 5 -15 10 -15 6 0 10 7 10 15 0 8 -4 15 -10 15 -5 0 -10 -7 -10 -15z" />
                <path d="M5850 5209 c0 -5 5 -7 10 -4 6 3 10 8 10 11 0 2 -4 4 -10 4 -5 0 -10 -5 -10 -11z" />
                <path d="M5375 5191 c-3 -5 -1 -12 5 -16 5 -3 10 1 10 9 0 18 -6 21 -15 7z" />
                <path d="M5240 5164 c0 -8 5 -12 10 -9 6 4 8 11 5 16 -9 14 -15 11 -15 -7z" />
                <path d="M5851 5144 c0 -11 3 -14 6 -6 3 7 2 16 -1 19 -3 4 -6 -2 -5 -13z" />
                <path d="M5375 5121 c-3 -5 -1 -12 5 -16 5 -3 10 1 10 9 0 18 -6 21 -15 7z" />
                <path d="M5240 5100 c0 -5 5 -10 10 -10 6 0 10 5 10 10 0 6 -4 10 -10 10 -5 0 -10 -4 -10 -10z" />
                <path d="M5851 5074 c0 -11 3 -14 6 -6 3 7 2 16 -1 19 -3 4 -6 -2 -5 -13z" />
                <path d="M5370 5050 c0 -5 5 -10 10 -10 6 0 10 5 10 10 0 6 -4 10 -10 10 -5 0 -10 -4 -10 -10z" />
                <path d="M5240 5036 c0 -9 5 -16 10 -16 6 0 10 4 10 9 0 6 -4 13 -10 16 -5 3 -10 -1 -10 -9z" />
                <path d="M5852 5000 c0 -14 2 -19 5 -12 2 6 2 18 0 25 -3 6 -5 1 -5 -13z" />
                <path d="M5376 4981 c-4 -7 -5 -15 -2 -18 9 -9 19 4 14 18 -4 11 -6 11 -12 0z" />
                <path d="M5241 4964 c0 -11 3 -14 6 -6 3 7 2 16 -1 19 -3 4 -6 -2 -5 -13z" />
                <path d="M5851 4924 c0 -11 3 -14 6 -6 3 7 2 16 -1 19 -3 4 -6 -2 -5 -13z" />
                <path d="M5375 4911 c-3 -5 -1 -12 5 -16 5 -3 10 1 10 9 0 18 -6 21 -15 7z" />
                <path d="M5241 4894 c0 -11 3 -14 6 -6 3 7 2 16 -1 19 -3 4 -6 -2 -5 -13z" />
                <path d="M5846 4871 c-4 -7 -5 -15 -2 -18 9 -9 19 4 14 18 -4 11 -6 11 -12 0z" />
                <path d="M5241 4834 c0 -11 3 -14 6 -6 3 7 2 16 -1 19 -3 4 -6 -2 -5 -13z" />
                <path d="M5370 4840 c0 -5 5 -10 10 -10 6 0 10 5 10 10 0 6 -4 10 -10 10 -5 0 -10 -4 -10 -10z" />
                <path d="M5845 4801 c-3 -5 -1 -12 5 -16 5 -3 10 1 10 9 0 18 -6 21 -15 7z" />
                <path d="M5380 4776 c0 -9 5 -16 10 -16 6 0 10 4 10 9 0 6 -4 13 -10 16 -5 3 -10 -1 -10 -9z" />
                <path d="M5241 4764 c0 -11 3 -14 6 -6 3 7 2 16 -1 19 -3 4 -6 -2 -5 -13z" />
                <path d="M5805 4750 c-3 -5 -2 -10 4 -10 5 0 13 5 16 10 3 6 2 10 -4 10 -5 0 -13 -4 -16 -10z" />
                <path d="M5425 4720 c3 -5 11 -10 16 -10 6 0 7 5 4 10 -3 6 -11 10 -16 10 -6 0 -7 -4 -4 -10z" />
                <path d="M5750 4710 c0 -5 5 -10 10 -10 6 0 10 5 10 10 0 6 -4 10 -10 10 -5 0 -10 -4 -10 -10z" />
                <path d="M5241 4694 c0 -11 3 -14 6 -6 3 7 2 16 -1 19 -3 4 -6 -2 -5 -13z" />
                <path d="M5480 4700 c0 -5 4 -10 9 -10 6 0 13 5 16 10 3 6 -1 10 -9 10 -9 0 -16 -4 -16 -10z" />
                <path d="M5545 4700 c3 -5 10 -10 16 -10 5 0 9 5 9 10 0 6 -7 10 -16 10 -8 0 -12 -4 -9 -10z" />
                <path d="M5615 4700 c3 -5 10 -10 16 -10 5 0 9 5 9 10 0 6 -7 10 -16 10 -8 0 -12 -4 -9 -10z" />
                <path d="M5680 4700 c0 -5 4 -10 9 -10 6 0 13 5 16 10 3 6 -1 10 -9 10 -9 0 -16 -4 -16 -10z" />
                <path d="M5241 4624 c0 -11 3 -14 6 -6 3 7 2 16 -1 19 -3 4 -6 -2 -5 -13z" />
                <path d="M5241 4564 c0 -11 3 -14 6 -6 3 7 2 16 -1 19 -3 4 -6 -2 -5 -13z" />
                <path d="M5236 4501 c-4 -7 -5 -15 -2 -18 9 -9 19 4 14 18 -4 11 -6 11 -12 0z" />
                <path d="M5230 4431 c0 -6 5 -13 10 -16 6 -3 10 1 10 9 0 9 -4 16 -10 16 -5 0 -10 -4 -10 -9z" />
                <path d="M5236 4371 c-4 -7 -5 -15 -2 -18 9 -9 19 4 14 18 -4 11 -6 11 -12 0z" />
                <path d="M5230 4290 c0 -5 5 -10 10 -10 6 0 10 5 10 10 0 6 -4 10 -10 10 -5 0 -10 -4 -10 -10z" />
                <path d="M5230 4225 c0 -8 5 -15 10 -15 6 0 10 7 10 15 0 8 -4 15 -10 15 -5 0 -10 -7 -10 -15z" />
                <path d="M5230 4090 c0 -5 5 -10 10 -10 6 0 10 5 10 10 0 6 -4 10 -10 10 -5 0 -10 -4 -10 -10z" />
                <path d="M5230 4025 c0 -8 5 -15 10 -15 6 0 10 7 10 15 0 8 -4 15 -10 15 -5 0 -10 -7 -10 -15z" />
                <path d="M5230 3860 c0 -5 5 -10 10 -10 6 0 10 5 10 10 0 6 -4 10 -10 10 -5 0 -10 -4 -10 -10z" />
                <path d="M5230 3794 c0 -8 5 -12 10 -9 6 4 8 11 5 16 -9 14 -15 11 -15 -7z" />
                <path d="M5230 3724 c0 -8 5 -12 10 -9 6 3 10 10 10 16 0 5 -4 9 -10 9 -5 0 -10 -7 -10 -16z" />
                <path d="M5230 3660 c0 -5 5 -10 10 -10 6 0 10 5 10 10 0 6 -4 10 -10 10 -5 0 -10 -4 -10 -10z" />
                <path d="M5230 3596 c0 -9 5 -16 10 -16 6 0 10 4 10 9 0 6 -4 13 -10 16 -5 3 -10 -1 -10 -9z" />
                <path d="M5235 3531 c-3 -5 -1 -12 5 -16 5 -3 10 1 10 9 0 18 -6 21 -15 7z" />
                <path d="M5230 3460 c0 -5 5 -10 10 -10 6 0 10 5 10 10 0 6 -4 10 -10 10 -5 0 -10 -4 -10 -10z" />
                <path d="M5230 3390 c0 -5 5 -10 10 -10 6 0 10 5 10 10 0 6 -4 10 -10 10 -5 0 -10 -4 -10 -10z" />
                <path d="M5226 3331 c-4 -7 -5 -15 -2 -18 9 -9 19 4 14 18 -4 11 -6 11 -12 0z" />
                <path d="M5200 3265 c-8 -9 -8 -15 -2 -15 12 0 26 19 19 26 -2 2 -10 -2 -17 -11z" />
                <path d="M5155 3210 c-3 -5 -2 -10 4 -10 5 0 13 5 16 10 3 6 2 10 -4 10 -5 0 -13 -4 -16 -10z" />
                <path d="M8017 6299 c-56 -6 -59 -10 -87 -104 -12 -38 -23 -75 -25 -81 -2 -6 -30 -15 -62 -19 -32 -3 -116 -20 -188 -37 -207 -48 -276 -98 -377 -273 -123 -212 -200 -465 -257 -845 -57 -383 -66 -491 -65 -815 0 -170 4 -352 9 -402 l7 -93 203 0 203 0 5 73 c3 39 14 149 26 242 11 94 28 231 37 305 33 277 38 274 46 -25 8 -277 7 -295 -32 -430 -45 -158 -69 -338 -85 -655 -25 -503 -35 -1006 -36 -1855 l-1 -940 339 -3 340 -2 22 182 c12 101 27 215 32 253 5 39 13 111 19 160 11 105 95 788 110 890 5 39 17 129 25 200 28 227 42 320 48 305 3 -8 30 -220 61 -470 155 -1268 188 -1525 194 -1531 10 -9 668 2 683 11 10 7 10 106 0 507 -7 274 -14 754 -17 1068 -3 314 -10 667 -15 785 -39 845 -47 920 -120 1123 l-40 112 11 100 c28 274 39 367 44 372 2 3 7 -10 11 -28 13 -80 79 -601 84 -674 l6 -80 212 -3 211 -2 7 92 c4 53 2 156 -5 238 -7 80 -16 267 -20 415 -12 390 -60 662 -202 1130 -47 157 -72 222 -141 362 -33 68 -118 157 -164 173 -15 5 -106 26 -202 45 -196 40 -213 50 -226 127 -9 51 -31 97 -48 100 -33 4 -538 2 -580 -3z m587 -83 c27 -92 38 -86 -149 -86 -103 0 -165 -4 -165 -10 0 -6 -61 -10 -164 -10 -130 0 -165 3 -169 14 -6 16 6 74 23 117 l12 29 299 0 298 0 15 -54z m221 -166 c82 -17 153 -36 157 -43 4 -6 6 -43 3 -82 -11 -155 -26 -426 -40 -710 -34 -691 -45 -894 -51 -972 l-6 -83 -612 0 -613 0 -6 88 c-4 48 -11 218 -17 377 -6 160 -17 434 -25 610 -8 176 -18 419 -21 541 l-7 221 44 17 c131 48 286 61 770 64 270 2 279 1 424 -28z m234 -59 c12 -8 12 -116 2 -732 -8 -493 -16 -759 -26 -834 -8 -60 -14 -135 -15 -165 -1 -89 -6 -100 -51 -100 l-39 0 0 53 c0 28 9 214 20 412 11 198 24 457 30 575 6 118 17 332 25 476 8 144 15 275 15 293 0 31 12 39 39 22z m-1505 -123 c7 -127 30 -707 47 -1138 6 -157 14 -347 17 -423 4 -76 5 -141 3 -143 -2 -2 -24 -4 -48 -4 l-43 0 0 103 c0 56 -2 190 -5 297 -2 107 -7 471 -11 808 -7 611 -7 612 14 612 19 0 20 -8 26 -112z m1618 35 c27 -41 102 -200 121 -258 55 -166 71 -218 111 -366 24 -90 49 -186 54 -214 93 -475 118 -699 109 -1004 -3 -108 -9 -206 -12 -218 -7 -23 -9 -23 -186 -23 -136 0 -179 3 -179 13 0 6 -7 57 -14 112 -8 55 -31 231 -51 390 l-37 290 6 475 c3 261 9 561 13 667 6 189 6 192 26 178 11 -8 28 -27 39 -42z m-1698 -75 c3 -68 8 -348 10 -623 l5 -500 -29 -150 c-25 -130 -63 -410 -87 -655 l-8 -75 -185 0 -185 0 -3 280 c-3 280 1 345 37 635 46 364 44 360 96 326 13 -9 28 -16 33 -16 8 0 35 90 114 380 11 41 24 87 28 102 11 35 2 66 -20 73 -10 3 -23 12 -30 20 -13 16 -5 33 67 155 41 68 127 170 144 170 4 0 10 -55 13 -122z m-210 -276 c5 -9 -111 -433 -122 -443 -10 -9 -52 8 -52 21 0 47 89 369 116 423 12 23 18 26 34 17 10 -6 21 -14 24 -18z m1734 -1449 c-3 -16 -17 -18 -105 -21 l-102 -3 -3 -52 -3 -52 -522 -3 c-415 -2 -523 0 -524 10 -1 7 0 21 1 32 1 10 -1 29 -4 42 -6 23 -9 24 -106 24 -93 0 -100 1 -100 20 0 20 7 20 736 20 695 0 735 -1 732 -17z m-1283 -78 l0 -30 -92 -3 -93 -3 0 36 0 36 93 -3 92 -3 0 -30z m1275 0 l0 -36 -92 3 c-92 3 -93 3 -93 28 0 14 1 28 3 33 2 4 43 7 93 7 l89 0 0 -35z m-747 -357 c4 -145 7 -468 7 -720 l0 -456 -76 -599 c-42 -329 -80 -634 -84 -678 -10 -97 -29 -250 -69 -574 -17 -135 -31 -251 -31 -258 0 -11 -58 -13 -307 -11 l-308 3 3 1035 c3 819 7 1128 22 1480 22 493 24 529 46 680 14 98 20 126 58 255 8 28 17 62 20 78 l6 27 354 0 353 0 6 -262z m746 245 c5 -10 25 -65 44 -123 56 -165 72 -274 87 -579 6 -118 9 -215 7 -217 -3 -4 -113 102 -157 150 l-25 28 -5 301 -5 302 -282 3 c-156 1 -283 1 -284 0 0 -2 -3 -152 -6 -334 l-5 -331 33 -46 34 -45 215 -4 215 -3 7 -304 c4 -168 9 -310 12 -318 4 -10 37 -13 141 -13 l135 0 0 -112 c0 -148 27 -1425 36 -1689 l7 -206 -144 -6 c-79 -4 -223 -7 -320 -7 l-176 0 -6 53 c-4 28 -15 124 -26 212 -11 88 -32 254 -46 370 -14 116 -34 282 -45 370 -12 88 -30 232 -40 320 -36 300 -60 490 -75 600 -25 179 -34 475 -35 1078 l0 567 350 0 c322 0 350 -1 359 -17z m-1641 -185 l-3 -53 -134 -3 -133 -3 6 27 c10 38 -2 64 -28 64 -12 0 -27 -5 -34 -12 -15 -15 -26 -4 -19 17 5 13 32 15 177 15 l171 0 -3 -52z m2202 22 c0 -20 -1 -20 -25 -4 -24 16 -27 16 -46 -2 -19 -17 -20 -28 -4 -66 7 -17 -3 -18 -129 -18 l-136 0 0 55 0 55 170 0 c164 0 170 -1 170 -20z m-2483 -34 c-4 -9 -11 -16 -17 -16 -17 0 -24 31 -9 41 18 11 34 -5 26 -25z m1838 -271 l0 -290 -28 -47 -28 -48 -203 0 -204 0 -26 34 -26 35 0 199 c0 109 3 247 7 306 l6 106 251 -2 251 -3 0 -290z m613 272 c2 -12 -3 -17 -17 -17 -12 0 -21 6 -21 13 0 31 32 34 38 4z m28 -55 c-12 -12 -18 8 -10 35 l8 28 4 -28 c2 -16 1 -31 -2 -35z m-2516 23 c0 -8 -4 -15 -10 -15 -5 0 -10 7 -10 15 0 8 5 15 10 15 6 0 10 -7 10 -15z m1997 -652 c50 -49 95 -98 102 -111 8 -15 14 -104 18 -258 l6 -234 -125 0 -125 0 -7 312 c-7 288 -6 314 11 345 9 18 20 33 24 33 3 0 47 -39 96 -87z" />
                <path d="M7582 3758 c-9 -9 -12 -94 -12 -322 l0 -310 27 -40 c61 -93 40 -86 279 -86 l213 0 36 74 35 73 0 312 0 311 -283 0 c-207 0 -286 -3 -295 -12z m546 -306 l2 -283 -30 -65 -31 -64 -197 0 -197 1 -32 43 -33 43 0 300 c0 165 3 303 7 307 4 3 119 5 257 4 l251 -3 3 -283z" />
              </g>
            </svg>